<svg id="hatterEsGyerek" xmlns="http://www.w3.org/2000/svg" viewBox="0 0 1920 1080"><defs><linearGradient id="Névtelen_színátmenet_64" x1="1061.2" y1="625.91" x2="1976.33" y2="97.56" gradientUnits="userSpaceOnUse"><stop offset="0" stop-color="#ffd95e"/><stop offset="1" stop-color="#fdc30a"/></linearGradient><linearGradient id="Névtelen_színátmenet_57" x1="1087.11" y1="610.49" x2="1976.13" y2="97.22" gradientUnits="userSpaceOnUse"><stop offset="0" stop-color="#ffbc27"/><stop offset="1" stop-color="#fb9e01"/></linearGradient><style>.hatterEsGyerek-1{fill:url(#Névtelen_színátmenet_64)}.hatterEsGyerek-2{fill:url(#Névtelen_színátmenet_57)}.hatterEsGyerek-3{fill:#9fb2d9}.hatterEsGyerek-11,.hatterEsGyerek-13,.hatterEsGyerek-17,.hatterEsGyerek-20,.hatterEsGyerek-21,.hatterEsGyerek-22,.hatterEsGyerek-23,.hatterEsGyerek-24,.hatterEsGyerek-25,.hatterEsGyerek-28,.hatterEsGyerek-29,.hatterEsGyerek-3,.hatterEsGyerek-30,.hatterEsGyerek-31,.hatterEsGyerek-32,.hatterEsGyerek-33,.hatterEsGyerek-34,.hatterEsGyerek-35,.hatterEsGyerek-4,.hatterEsGyerek-5,.hatterEsGyerek-6,.hatterEsGyerek-7,.hatterEsGyerek-8{fill-rule:evenodd}.hatterEsGyerek-4{fill:#b4c5e6}.hatterEsGyerek-5{fill:#c0cdea}.hatterEsGyerek-6{fill:#e1e8f6}.hatterEsGyerek-7,.hatterEsGyerek-9{fill:#00000f}.hatterEsGyerek-10,.hatterEsGyerek-8{fill:#3b405f}.hatterEsGyerek-11,.hatterEsGyerek-12{fill:#101537}.hatterEsGyerek-13,.hatterEsGyerek-18{fill:#070725}.hatterEsGyerek-14{fill:#d58750}.hatterEsGyerek-15,.hatterEsGyerek-20{fill:#b56b41}.hatterEsGyerek-16,.hatterEsGyerek-24{fill:#fff}.hatterEsGyerek-17{fill:#e4e1e8}.hatterEsGyerek-19{fill:#aeabba}.hatterEsGyerek-21{fill:#ed7862}.hatterEsGyerek-22{fill:#f5ac83}.hatterEsGyerek-23{fill:#d64c47}.hatterEsGyerek-25{fill:#181d3b}.hatterEsGyerek-26,.hatterEsGyerek-29{fill:#f18a00}.hatterEsGyerek-27,.hatterEsGyerek-30{fill:#fcc100}.hatterEsGyerek-28{fill:#707386}.hatterEsGyerek-31{fill:#294d3c}.hatterEsGyerek-32{fill:#4a9075}.hatterEsGyerek-33{fill:#1b7154}.hatterEsGyerek-34{fill:#a6c86b}.hatterEsGyerek-35{fill:#5f9850}.hatterEsGyerek-36{fill:none}</style></defs><g id="Réteg_2" data-name="Réteg 2"><g id="Réteg_1" data-name="Réteg 1"><path class="hatterEsGyerek-1" d="M919.5 0s-135.37 100.94-79.94 237c40.94 100.5 126 136.92 151.94 177 27.55 42.57 31.08 58 38.5 109 12.4 85.31 61.5 149.5 168.08 154.58 103.08 4.92 187.92 23.49 240 76.5 251.49 256 481.93 82.59 481.93 82.59V0z"/><path class="hatterEsGyerek-2" d="M926.09 0s-117 83.94-61.53 220c40.94 100.5 126 136.92 151.94 177 27.55 42.57 31.08 58 38.5 109 12.4 85.31 61.5 149.5 168.08 154.58 103.08 4.92 187.57 23.84 240 76.5C1678 953 1920 833.08 1920 833.08V0z"/><path class="hatterEsGyerek-3" d="M1470.49 632.91s21.67-11.18 17.7-38.62 12.81-36.13 17.07-44.29-5.29-21.33-4.2-32.86 14.38-14.61 8.15-30.43-1-21.82 7.24-38.76-4-42.83-9.73-42.69 1.27 6.2-3.81 17.46-26.5 14.69-33.2 24.11 5.08 21.89-2.57 34.6-30.43 8.77-36.46 21.1 8.34 27.12 4.16 40-19.57 20.26-26 30.65-18.61 30.29 1.26 54.05 60.39 5.68 60.39 5.68z"/><path class="hatterEsGyerek-4" d="M1509.1 428.75a1.41 1.41 0 00-2.63-1l-89.66 232.91 3.37-.92z"/><path class="hatterEsGyerek-4" d="M1488.46 605.07q.17-1.62.21-3.35l-58.89 33.09 5.21-13.53a1.58 1.58 0 00.07-.17l2.67-6.94 49.86-28q0-1.71.12-3.31l-48.4 27.2 4.71-12.24 46.07-25.89a36.81 36.81 0 012-4.36l-46.47 26.11 2.34-6.08a1.56 1.56 0 00.07-.19l10.23-26.58 46.11-25.91c-.27-.91-.55-1.84-.83-2.77l-43.69 24.55 5.11-13.27 36.33-20.43a28.15 28.15 0 01-.3-3.07l-34.44 19.35 3.84-10 .06-.14 11.17-29 27-15.15q-.51-1.42-.89-2.74L1483.2 496l9.75-25.33a1.19 1.19 0 00.06-.15l16.09-41.8a1.41 1.41 0 00-2.63-1l-14.62 38-8.36-28.55-2.56 1.31 9.25 31.58-11 28.54v.11L1469 525.12l-16-34.4c-.9.29-1.81.57-2.73.83l17.36 37.23-3.87 10.06-21.14-45c-.91.31-1.8.64-2.65 1l22.08 47-.34.19a1.41 1.41 0 00-.11 2.4l-5.71 14.83v.13l-9.24 24-15.66-33.31q-.92 1.26-2 2.46l16.22 34.5-2.38 6.17-17.37-36.94q-1.06 1-2.16 2.05l18.12 38.54-6.06 15.74v.12l-1.68 4.36-22.25-47.32c-.7.83-1.34 1.67-1.93 2.53l22.77 48.44-6.41 16.65v.12c1.11.35 2.23.64 3.36.89z"/><path class="hatterEsGyerek-5" d="M1480.57 688.72c6-4.64 12.09-6.74 15.34-9.75 6.46-6 2.11-20.89 6.79-30.92s17.64-8.52 17.13-24.75 6.16-19.94 19-32.54 10.23-39.8 5-41.54-.85 6-9 14.48-28.57 4.69-37.63 11-2.48 21.33-13.45 30.3-30.2-1.91-39.59 7.25-1.22 27.08-9.14 37.37-24.12 11.93-33.29 19.19c-5.16 4.08-12.89 10.3-16.85 19.89z"/><path class="hatterEsGyerek-6" d="M1437.11 688.72h-3.56l14.82-17.21.09-.1 9.91-11.5a1.35 1.35 0 01.87-2.12l.36-.06-4.75-49.37c.89 0 1.79-.05 2.71 0l4.55 47.26 6.72-7.8-3.64-39.08c.91.05 1.82.1 2.72.13l3.37 36.11 17.64-20.48.08-.09 19.07-22.14 1.84-31.39 2.72-.35-1.63 28.31 25.38-29.47a1.35 1.35 0 112 1.76l-27.93 32.43-.1.12-16.92 19.65 26.46-4.5c-.06.87-.09 1.79-.09 2.75l-29.13 5-19.38 22.42-.1.11-6.67 7.75 37.21-6.33a26.91 26.91 0 00-.72 2.86l-39.25 6.68-8.87 10.29 47.2-8c0 .93-.09 1.85-.14 2.76l-49.82 8.48-13 15.13zm-4.91 0h-2.71l-3.08-32c.88-.5 1.73-1 2.56-1.58l3.23 33.59zm-7.3 0h-2.71l-2.76-28.63q1.31-.56 2.6-1.15l2.87 29.78zm-20.45 0l-2-20.52c.81-.58 1.66-1.13 2.55-1.65l2.13 22.17z"/><path class="hatterEsGyerek-7" d="M1268.43 494.89h68a4.5 4.5 0 014.49 4.49 4.5 4.5 0 01-4.49 4.49h-68a4.5 4.5 0 01-4.49-4.49 4.5 4.5 0 014.49-4.49z"/><path class="hatterEsGyerek-8" d="M1270.71 462.89h31.48a.56.56 0 01.54.47l5.64 40a.4.4 0 01-.41.47h-43a.4.4 0 01-.4-.47l5.64-40a.56.56 0 01.51-.47z"/><path class="hatterEsGyerek-8" d="M1251.83 494.89h68a4.5 4.5 0 014.49 4.49 4.5 4.5 0 01-4.49 4.49h-68a4.5 4.5 0 01-4.49-4.49 4.5 4.5 0 014.49-4.49z"/><path class="hatterEsGyerek-9" d="M1217.59 374.69h150.79a2.32 2.32 0 012.32 2.32v100.84a2.33 2.33 0 01-2.33 2.33h-150.78a2.32 2.32 0 01-2.32-2.32V377a2.32 2.32 0 012.32-2.32z"/><path class="hatterEsGyerek-10" d="M1210.22 374.69H1361a2.32 2.32 0 012.32 2.32v100.84a2.33 2.33 0 01-2.33 2.33h-150.77a2.33 2.33 0 01-2.33-2.33V377a2.32 2.32 0 012.32-2.32z"/><path class="hatterEsGyerek-11" d="M1211.48 376.2h148.27a1.55 1.55 0 011.54 1.54v90.93a1 1 0 01-1 1H1210.9a1 1 0 01-1-1v-90.93a1.55 1.55 0 011.58-1.54z"/><path class="hatterEsGyerek-12" d="M1214.29 380.56h142.64v84.71h-142.64z"/><path class="hatterEsGyerek-11" d="M1298.83 484.33l1.49 10.56h6.84l-2.07-14.71h-37.29l-.52 3.68h31a.56.56 0 01.55.47z"/><path class="hatterEsGyerek-11" d="M1286.67 490.4h-88.42a9 9 0 00-9 9 9 9 0 009 9h88.42a9 9 0 009-9 9 9 0 00-9-9z"/><path class="hatterEsGyerek-13" d="M1303.55 490.4h-41a9 9 0 00-9 9 9 9 0 009 9h41a9 9 0 009-9 9 9 0 00-9-9z"/><rect class="hatterEsGyerek-12" x="1070" y="505.09" width="284.25" height="33.52" rx="5.03" ry="5.03"/><path class="hatterEsGyerek-7" d="M1349.36 505.09h-274.47a5 5 0 00-4.89 5v9.23a5 5 0 004.89 5h274.47a5 5 0 004.89-5v-9.23a5 5 0 00-4.89-5z"/><rect class="hatterEsGyerek-9" x="1343.48" y="505.51" width="86.29" height="183.21" rx="5.21" ry="5.21"/><path class="hatterEsGyerek-12" d="M1281.73 505.51h67.91a4.66 4.66 0 014.66 4.66v173.88a4.66 4.66 0 01-4.66 4.66h-67.91a4.67 4.67 0 01-4.67-4.67V510.17a4.67 4.67 0 014.67-4.67z"/><rect class="hatterEsGyerek-14" x="1056.55" y="499.38" width="297.69" height="11.42" rx="1.71" ry="1.71"/><rect class="hatterEsGyerek-15" x="1351.21" y="499.38" width="87.44" height="11.42" rx="1.71" ry="1.71"/><rect class="hatterEsGyerek-16" x="1282.84" y="516.58" width="65.68" height="52.66" rx="3.89" ry="3.89"/><path class="hatterEsGyerek-17" d="M1282.88 565.94H1340a3.9 3.9 0 003.49-2.17 3.85 3.85 0 00.4-1.72v-44.89a3.77 3.77 0 000-.58h.79a3.9 3.9 0 013.89 3.89v44.88a3.9 3.9 0 01-3.89 3.89h-57.9a3.9 3.9 0 01-3.9-3.3z"/><rect class="hatterEsGyerek-18" x="1300.21" y="519.69" width="30.95" height="3.48" rx="1.5" ry="1.5"/><rect class="hatterEsGyerek-16" x="1282.84" y="572.03" width="65.68" height="52.66" rx="3.89" ry="3.89"/><path class="hatterEsGyerek-17" d="M1282.88 621.38H1340a3.9 3.9 0 003.49-2.17 3.84 3.84 0 00.4-1.72v-44.88a3.79 3.79 0 000-.58h.79a3.9 3.9 0 013.89 3.89v44.88a3.9 3.9 0 01-3.89 3.89h-57.9a3.91 3.91 0 01-3.9-3.31z"/><rect class="hatterEsGyerek-18" x="1300.21" y="575.14" width="30.95" height="3.48" rx="1.5" ry="1.5"/><rect class="hatterEsGyerek-16" x="1282.84" y="627.48" width="65.68" height="52.66" rx="3.89" ry="3.89"/><path class="hatterEsGyerek-17" d="M1282.88 676.84H1340a3.9 3.9 0 003.49-2.17 3.85 3.85 0 00.4-1.72v-44.89a3.8 3.8 0 000-.58h.79a3.9 3.9 0 013.89 3.89v44.88a3.9 3.9 0 01-3.89 3.89h-57.9a3.9 3.9 0 01-3.9-3.3z"/><rect class="hatterEsGyerek-18" x="1300.21" y="630.59" width="30.95" height="3.48" rx="1.5" ry="1.5"/><rect class="hatterEsGyerek-19" x="1115.59" y="505.51" width="11.4" height="185.43" rx=".46" ry=".46"/><rect class="hatterEsGyerek-16" x="1113.82" y="505.51" width="7.94" height="185.43" rx="2.34" ry="2.34"/><rect class="hatterEsGyerek-19" x="1066.54" y="505.51" width="11.4" height="185.43" rx=".46" ry=".46"/><rect class="hatterEsGyerek-16" x="1064.78" y="505.51" width="7.94" height="185.43" rx="2.34" ry="2.34"/><path class="hatterEsGyerek-20" d="M1229.12 499.38h-170.85a1.72 1.72 0 00-1.71 1.71v8a1.72 1.72 0 001.71 1.71H1218a63.87 63.87 0 0111.12-11.42z"/><path class="hatterEsGyerek-21" d="M1167.08 449.8l-2.15 3.59s-.83 4.36.41 7.34-14.23 6.21-14.23 6.21l-12-9.68-2.65-3.31s5.63-6.12 6-8.77 24.62 4.62 24.62 4.62z"/><path class="hatterEsGyerek-22" d="M1193.81 484.11s8.11 6.54 10.92 7 15.14-5.21 17.62-5.87 8-.66 11.92-.66 8 1.49 10.1 5.79h-8.28c-2.23 0-9.77 6.12-17 11.09s-13.07 9.1-17.88 8.61-21.35-12.91-21.35-12.91z"/><path class="hatterEsGyerek-21" d="M1219.05 501.49c-7.28 5-13.07 9.1-17.88 8.61s-21.35-12.91-21.35-12.91l14-13.07s1.88 1.51 4.13 3.13c-5.89 9.36-3.24 13.41 3.68 16.17 5.54 2.22 19.64-5.49 28.51-9.79-3.21 2.2-7.14 5.19-11.09 7.86z"/><path class="hatterEsGyerek-13" d="M1127.64 560.5s41.87-.38 47 .06 10.17 5.89 9.31 14.31-12.58 74-12.58 74a4.93 4.93 0 01-1.7.77c-.91.19-8.4 1.42-8.4 1.42l-.51-6.08 4.38-63.79-38.62-7z"/><path class="hatterEsGyerek-23" d="M1160.81 645a2.07 2.07 0 00-1.26 1.36 66.22 66.22 0 00-1.11 9.4c.07 1 2.66 3 7.08 4.91s21.24 6.79 21.24 6.79l.19-.61a2.26 2.26 0 001.11-1.38 6.36 6.36 0 00-.71-4.63c-.92-1.31-6.35-5-7.34-5.83s-5.91-7.64-6.31-8.1a5.28 5.28 0 00-6.07-.39c-3.09 1.68-6.56 1.08-6.82-1.52z"/><path class="hatterEsGyerek-24" d="M1186.94 666.83s-16.78-6.16-20.46-7.45a33.94 33.94 0 01-8-4.79 1.39 1.39 0 00-.72.76c-.13.49-.22 2.21-.27 2.57a2.91 2.91 0 001.92 2.77c1.84.79 25.28 9 26.35 9.4s1.5-2.48 1.5-2.48.07-.61-.32-.78z"/><path class="hatterEsGyerek-25" d="M1101.72 534.51s111.91 12.92 118 14.25 11.25 8.61 8.94 18.54-27.4 89.68-27.4 89.68a6 6 0 01-2.15.66c-1.12.08-10.26.41-10.26.41l-3.6-3.68 20-71.18-81.7-4.19c-22.94-3.66-26.05-31.58-21.83-44.49z"/><path class="hatterEsGyerek-23" d="M1180.45 543s-8.94 6.62-14.32 4.47-31.2-46.76-31.2-46.76l12.41-44.69a116.61 116.61 0 0118.12 2.48l1.86 1.7s7.28 1.24 11.42 5.87 17.71 16.72 18.21 17.71-11.83 14.56-15 16.72a2.55 2.55 0 01-2.4-.41l-1.49-1.2s-3.31 17.24-3.31 22.34v5.11s1.74 13.18 3.06 14.42 2.64 2.24 2.64 2.24z"/><path class="hatterEsGyerek-24" d="M1140.5 551.53a3.75 3.75 0 110-7.51h33.1a16.52 16.52 0 0016-12.89 61.08 61.08 0 016.88 3.34 24 24 0 01-22.93 17.06z"/><path class="hatterEsGyerek-18" d="M1130.78 581.27h9.51v78.25h-9.51z"/><path class="hatterEsGyerek-9" d="M1143.65 554.98h9.27v21.18h-9.27zM1079.6 554.98h9.27v21.18h-9.27z"/><rect class="hatterEsGyerek-10" x="1125.28" y="579.41" width="20.52" height="21.18" rx="5.51" ry="5.51"/><rect class="hatterEsGyerek-18" x="1121.63" y="577.76" width="27.8" height="15.95" rx="1.58" ry="1.58"/><path class="hatterEsGyerek-26" d="M1131.4 571.7h77.13a5.29 5.29 0 015.29 5.29v6a5.3 5.3 0 01-5.3 5.3h-77.12a5.3 5.3 0 01-5.3-5.3v-6a5.3 5.3 0 015.3-5.29z"/><rect class="hatterEsGyerek-27" x="1070" y="571.7" width="87.72" height="16.55" rx="5.3" ry="5.3"/><rect class="hatterEsGyerek-10" x="1125.28" y="654.41" width="20.52" height="21.18" rx="5.51" ry="5.51"/><rect class="hatterEsGyerek-18" x="1121.63" y="664.5" width="27.8" height="23.03" rx="2.28" ry="2.28"/><path class="hatterEsGyerek-28" d="M1110.3 681.89a6.85 6.85 0 006.83 6.83h36.83a6.85 6.85 0 006.83-6.83 6.85 6.85 0 00-6.83-6.83h-36.83a6.85 6.85 0 00-6.83 6.83z"/><path class="hatterEsGyerek-11" d="M1074.46 688.72a6.85 6.85 0 006.83 6.83h93.59a6.85 6.85 0 006.83-6.83 6.85 6.85 0 00-6.83-6.83h-93.59a6.85 6.85 0 00-6.83 6.83z"/><path class="hatterEsGyerek-7" d="M1133.05 688.72a6.85 6.85 0 006.83 6.83h49.9a6.85 6.85 0 006.83-6.83 6.85 6.85 0 00-6.83-6.83h-49.9a6.85 6.85 0 00-6.83 6.83z"/><path class="hatterEsGyerek-24" d="M1154.4 526.37a3.75 3.75 0 100 7.51h33.1a16.5 16.5 0 0116.44 16.44v29.83a3.75 3.75 0 107.51 0v-29.83a24 24 0 00-23.95-23.95z"/><path class="hatterEsGyerek-29" d="M1080.92 486.39a41.25 41.25 0 0141.13-41.13h5.46a41.25 41.25 0 0141.13 41.13v61.17a10.6 10.6 0 01-10.57 10.57h-66.57a10.6 10.6 0 01-10.57-10.57z"/><path class="hatterEsGyerek-30" d="M1070 486.39a41.25 41.25 0 0141.13-41.13h5.46a41.25 41.25 0 0141.13 41.13v61.17a10.6 10.6 0 01-10.57 10.57h-66.57a10.6 10.6 0 01-10.58-10.57z"/><path class="hatterEsGyerek-23" d="M1186.15 651.51a3.22 3.22 0 00-2.34 1.21c-.91 1.2-4.14 9.48-4.3 10.72s3.31 4.39 9.68 7.94 31.24 14.48 31.24 14.48l.46-.66a3.32 3.32 0 002.11-1.28 6 6 0 00.17-5.67c-1.07-1.82-8.52-7.86-9.85-9.1s-7.12-10.8-7.62-11.46-4.1-3.39-9.35-2.32-10.51-.71-10.2-3.86z"/><path class="hatterEsGyerek-24" d="M1220.88 685.2s-24.46-12.37-29.83-15-11.16-8.08-11.16-8.08-1 .14-1.33.67a30.2 30.2 0 00-1.12 2.94c-.16.42-.41 2.36 2.24 3.85s36.91 18.37 38.48 19.12 3-2.46 3-2.46.28-.72-.28-1.04z"/><path class="hatterEsGyerek-22" d="M1174.2 399.44l-4-.93a17.77 17.77 0 00-21.29 13.22l-4.45 19a17.77 17.77 0 0013.25 21.27l4 .93a17.77 17.77 0 0021.29-13.2l4.44-19a17.77 17.77 0 00-13.24-21.29z"/><path class="hatterEsGyerek-21" d="M1148.43 413.91l-3.94 16.82a17.77 17.77 0 0013.22 21.27l4 .93a17.61 17.61 0 0011.32-1.12c-.47.2-3.84 1.51-4.59-1-.81-2.67 3.79-11.23 3.79-11.23a1.07 1.07 0 00-.08-1.09 15.94 15.94 0 01-1.87-10.94c1.15-5.7-6.23-9.68-6.23-9.68l17.07 4.62V426a8.16 8.16 0 016.1-4.31l.23-1a17.64 17.64 0 00-1.85-12.69c-5.66.73-24.21 3.1-37.17 5.91z"/><path class="hatterEsGyerek-11" d="M1180 431.34s1.55-.17 2.06-2.35l.68-2.9a18.24 18.24 0 002.62-6.36s10.1-1.41 12.06-10.76-6.74-19.23-8-20.21-6.65-2.84-13.39.19c0 0-1.15.71-3.35-.18s-14.59-4.39-20.58-4.59-9.85 6-12.66 13.48A4.37 4.37 0 001136 394c-3-.63-1.4 5 .78 7 0 0-5.15 2.64-6.13 8.15s.88 29.78 5.48 34.62 16.2 6.91 19.9 7.78 11-3 14-13.12c0 0-1.46-5.06-.26-9.23s2.3-7.23 3.86-7.77 5.41 3.49 5.74 5.3a11.34 11.34 0 01-.4 4.28 1.46 1.46 0 001.03.33z"/><path class="hatterEsGyerek-13" d="M1180 431.34s1.55-.17 2.06-2.35l.68-2.9a18.28 18.28 0 002.62-6.37s10.1-1.41 12.06-10.76-6.74-19.23-8-20.21c0 0 9.52 10.39-1 15.72s-26 8.72-36.19 8.08-17.41-18.3-17.41-18.32c-1.17 1.11.23 5.15 2 6.74 0 0-5.15 2.64-6.13 8.15s.88 29.78 5.48 34.62 16.2 6.91 19.9 7.78 11-3 14-13.12c0 0-1.46-5.06-.26-9.23s2.3-7.23 3.86-7.77 5.41 3.49 5.74 5.3a11.34 11.34 0 01-.4 4.28 1.46 1.46 0 00.99.36z"/><path class="hatterEsGyerek-31" d="M1401.6 556.22c-16.18-8.6-20.28 10.11-14 25.6s38.56 67.6 40.25 88.26c.65 8 2.15 7.13 3.42 1.52 6.39-28.01-7.4-103.54-29.67-115.38z"/><path class="hatterEsGyerek-32" d="M1435.85 485.24c18.55-16.7 30.15 6.68 26.94 29.23s-28.68 102.08-24.1 130c1.78 10.8-.48 10.14-4 3.14-17.69-34.98-24.37-139.38 1.16-162.37z"/><path class="hatterEsGyerek-33" d="M1439.09 652.17c-.4 1-1.28.52-2.46-1.2-19.33-64.4 10.78-160.62 10.88-160.93a1 1 0 011.92.59c-.1.31-30.63 97.84-10.34 161.54z"/><path class="hatterEsGyerek-34" d="M1476.37 538.75c18-7.83 20.8 12.48 12.79 28.48s-46.77 68.9-50.29 90.8c-1.36 8.49-2.88 7.43-3.78 1.34-4.47-30.42 16.54-109.85 41.28-120.62z"/><path class="hatterEsGyerek-35" d="M1437.23 663.9c-.55.67-1.08.07-1.53-1.51 1.63-52.78 48-117 48.16-117.17a.79.79 0 011.28.92c-.14.21-47.14 65.26-47.91 117.76z"/><path class="hatterEsGyerek-8" d="M1451.06 652.21h-34.53l-9.02 8.13 7.37 28.38h37.83l7.37-28.38-9.02-8.13z"/><rect class="hatterEsGyerek-10" x="1404.66" y="641.65" width="58.28" height="18.69" rx="2.86" ry="2.86"/><path class="hatterEsGyerek-11" d="M1407.51 660.34l1.52 5.83h49.53l1.52-5.83h-52.57z"/><path class="hatterEsGyerek-36" d="M0 0h1920v1080H0z"/></g></g></svg>